<svg width="0" height="0" class="hidden">
  <symbol xmlns="http://www.w3.org/2000/svg" viewBox="0 0 10 19" id="icon-fb-mobile">
    <path d="M7.1 19H2v-8.8H0V5.8h1.9c-.1-2 .2-3.4 1.1-4.4C3.8.5 5 .1 6.5 0H10v4.2H7.2c-.1.2-.2.8-.2 1.6h3v4.4H7.1V19zm-4-1h2.8V9.1h2.9V6.8H5.9v-.5c0-1.4 0-2.6.7-3.1l.1-.1h2.1V1H6.5c-1.2.1-2 .4-2.6 1-.8.8-1 2.3-.8 4.2l.1.6H1.1v2.3h2V18z"></path>
  </symbol>
  <symbol xmlns="http://www.w3.org/2000/svg" viewBox="0 0 16 16" id="icon-insta-mobile">
    <path d="M11.8 1C13.6 1 15 2.4 15 4.2v7.7c0 1.7-1.4 3.1-3.1 3.1H4.2C2.4 15 1 13.6 1 11.8V4.2C1 2.4 2.4 1 4.2 1h7.6m0-1H4.2C1.9 0 0 1.9 0 4.2v7.7C0 14.1 1.9 16 4.2 16h7.7c2.3 0 4.2-1.9 4.2-4.2V4.2C16 1.9 14.1 0 11.8 0z"></path>
    <path d="M8 4.9c1.7 0 3.1 1.4 3.1 3.1 0 1.7-1.4 3.1-3.1 3.1-1.7 0-3.1-1.4-3.1-3.1 0-1.7 1.4-3.1 3.1-3.1m0-1C5.7 3.9 3.9 5.7 3.9 8s1.8 4.1 4.1 4.1 4.1-1.8 4.1-4.1S10.3 3.9 8 3.9z"></path>
    <circle cx="12.3" cy="3.7" r=".9"></circle>
  </symbol>
  <symbol xmlns="http://www.w3.org/2000/svg" viewBox="0 0 20 20" id="icon-mail">
    <path d="M17.9 9.4H9.4v1.2h8.5l-2.1 2.1.9.9 3.1-3.1c.2-.2.2-.6 0-.9l-3.1-3.1-.9.9 2.1 2zm-9.8 10v-6.2c0-.3-.3-.6-.6-.6H3.1c0 .7.6 1.2 1.2 1.2h2.5v5H3.1c-1 .1-1.8-.7-1.9-1.7v-14c0-1 .8-1.8 1.7-1.8h3.9v5H4.4c-.7 0-1.2.6-1.2 1.2h4.4c.3 0 .6-.3.6-.6V.6C8.1.3 7.8 0 7.5 0H3.1C1.5-.1.1 1.2 0 2.9v13.9c-.1 1.7 1.2 3.1 2.9 3.1h4.6c.3.1.6-.2.6-.5z"></path>
  </symbol>
  <symbol xmlns="http://www.w3.org/2000/svg" viewBox="0 0 127.8 23.4" id="icon-phone">
    <path d="M1.6 21.5C.6 20.2 0 18.3 0 15.9V7.6c0-2.5.5-4.4 1.5-5.7C2.6.6 4.3 0 6.8 0c2.4 0 4.1.6 5.1 1.7s1.5 2.8 1.5 4.9v2H8.5V6.3c0-.9-.1-1.6-.3-2s-.6-.8-1.4-.8c-.7 0-1.2.2-1.4.7s-.3 1.3-.3 2.2v10.7c0 .9.1 1.6.4 2.1.2.5.7.7 1.4.7s1.1-.2 1.3-.7c.2-.5.3-1.2.3-2.1v-2.4h4.9v2c0 2.1-.5 3.8-1.5 5-1 1.2-2.7 1.8-5.1 1.8-2.4-.1-4.2-.7-5.2-2zM19.3.3H25l4.2 22.8h-4.6l-.8-4.8h-3.3l-.8 4.8H15L19.3.3zm4.1 15l-1.2-8.9-1.2 8.9h2.4zm9.3-11.2h-3.4V.3h11.9V4h-3.4v19.1h-5.1v-19zM50.3.3h8.8v2.4h-5.7v7.5H58v2.3h-4.6v8.4h5.7v2.3h-8.9V.3zm11.4 0h2.2l6.5 15.1V.3H73v22.8h-2L64.4 7.5v15.6h-2.7V.3zM76 .3h8.8v2.4h-5.7v7.5h4.6v2.3h-4.6v8.4h5.7v2.3H76V.3zm11.4 0H92c2.3 0 4 .5 5.1 1.4 1.1.9 1.6 2.5 1.6 4.6 0 2.9-.9 4.7-2.8 5.3L99.1 23H96l-3-10.7h-2.5V23h-3.2V.3zm4.4 9.8c1.4 0 2.3-.3 2.9-.8.6-.5.9-1.5.9-3 0-.9-.1-1.7-.3-2.2-.2-.5-.6-.9-1.1-1.2-.5-.3-1.3-.4-2.2-.4h-1.4V10h1.2zm10.9 11.3c-.9-1.3-1.4-3.2-1.4-5.8V8c0-1.8.2-3.2.5-4.3.4-1.1 1-2 1.9-2.6s2.1-.9 3.7-.9c2.1 0 3.6.5 4.5 1.6s1.4 2.7 1.4 5v.8h-3v-.7c0-1.1-.1-1.9-.2-2.5-.1-.6-.4-1-.8-1.3-.4-.3-1-.5-1.9-.5-.9 0-1.5.2-2 .6s-.7.9-.8 1.6-.2 1.6-.2 2.7V16c0 1.7.2 3 .6 3.8.4.8 1.2 1.1 2.4 1.1s2-.4 2.4-1.2c.4-.8.7-2.1.7-4v-1.6h-2.9v-2.3h5.8v11.3h-2l-.3-2.6c-.7 1.9-2.1 2.9-4.1 2.9-1.9 0-3.4-.7-4.3-2zm17.1-6.3L114.9.4h3l3.5 11 3.4-11h3l-4.9 14.7v8h-3v-8z"></path>
  </symbol>
  <symbol xmlns="http://www.w3.org/2000/svg" viewBox="0 0 17 13" id="icon-vk-mobile">
    <path d="M15.6 11.6H1.4V5.8H0V13h17V5.8h-1.4v5.8zM0 0v2.3l8.5 7.1L17 2.3V0H0zm15.6 1.6L8.5 7.5 1.4 1.6v-.2h14.2v.2z"></path>
  </symbol>
  <symbol xmlns="http://www.w3.org/2000/svg" viewBox="0 0 100.5 18.1" id="logo-footer">
    <path d="M1.2 16.6c-.8-1-1.2-2.5-1.2-4.4V5.9C0 4 .4 2.5 1.2 1.5 2 .5 3.4 0 5.4 0c1.9 0 3.2.4 4 1.3.8.9 1.2 2.1 1.2 3.8v1.5h-4V4.8c0-.7-.1-1.2-.2-1.6-.1-.3-.5-.5-1-.5s-1 .2-1.1.6c-.2.4-.3.9-.3 1.6v8.3c0 .7.1 1.2.3 1.6.2.4.5.6 1.1.6.5 0 .9-.2 1-.6.2-.4.2-.9.2-1.6v-1.8h3.9v1.5c0 1.6-.4 2.9-1.2 3.9-.8.9-2.1 1.4-4 1.4-1.9-.1-3.3-.6-4.1-1.6zM15.2.2h4.5L23 17.8h-3.6l-.6-3.7h-2.6l-.6 3.7h-3.7L15.2.2zm3.2 11.6l-.9-6.9-.9 6.9h1.8zm7.4-8.7h-2.7V.2h9.3v2.9h-2.7v14.7h-4V3.1zM39.5.2h6.9V2H42v5.8h3.6v1.7H42v6.4h4.5v1.8h-7V.2zm9 0h1.7l5.1 11.7V.2h2.1v17.6h-1.6l-5.1-12v12h-2.1V.2zm11.3 0h6.9V2h-4.4v5.8h3.6v1.7h-3.6v6.4h4.5v1.8h-7V.2zm9 0h3.6c1.8 0 3.1.4 4 1.1s1.3 1.9 1.3 3.6c0 2.3-.7 3.6-2.2 4.1l2.5 8.8h-2.4l-2.3-8.3h-1.9v8.3h-2.5V.2zm3.4 7.6c1.1 0 1.8-.2 2.3-.6.5-.4.7-1.2.7-2.3 0-.7-.1-1.3-.2-1.7s-.4-.7-.9-.9c-.4-.2-1-.3-1.7-.3h-1.1v5.8h.9zm8.6 8.7c-.7-1-1.1-2.5-1.1-4.5V6.2c0-1.4.1-2.5.4-3.4.3-.9.8-1.5 1.5-2s1.7-.7 2.9-.7c1.6 0 2.8.4 3.6 1.2.7.8 1.1 2.1 1.1 3.9v.7h-2.3v-.6c0-.8-.1-1.5-.2-1.9-.1-.5-.3-.8-.7-1-.3-.3-.8-.4-1.4-.4-.7 0-1.2.2-1.5.5-.3.3-.6.7-.7 1.2-.1.5-.1 1.2-.1 2.1v6.5c0 1.3.2 2.3.5 2.9.3.6 1 .9 1.9.9.9 0 1.6-.3 1.9-1 .3-.6.5-1.7.5-3.1v-1.2h-2.3V9.1h4.5v8.7h-1.6l-.2-2c-.6 1.5-1.6 2.2-3.2 2.2s-2.8-.5-3.5-1.5zm13.5-4.9L90.4.2h2.3l2.7 8.5L98.1.2h2.3l-3.8 11.4v6.2h-2.4v-6.2z"></path>
  </symbol>
</svg>