<?xml version="1.0" encoding="UTF-8"?><!DOCTYPE svg PUBLIC "-//W3C//DTD SVG 1.1//EN" "http://www.w3.org/Graphics/SVG/1.1/DTD/svg11.dtd"><svg xmlns="http://www.w3.org/2000/svg" xmlns:xlink="http://www.w3.org/1999/xlink"><symbol id="icon-fb-mobile" viewBox="0 0 10 19">
  <g>
    <path d="M7.1,19H2v-8.8H0V5.8h1.9c-0.1-2,0.2-3.4,1.1-4.4C3.8,0.5,5,0.1,6.5,0L10,0v4.2H7.2C7.1,4.4,7,5,7,5.8H10v4.4H7.1V19z
      M3.1,18h2.8V9.1h2.9V6.8H5.9l0-0.5c0-1.4,0-2.6,0.7-3.1l0.1-0.1h2.1V1H6.5c-1.2,0.1-2,0.4-2.6,1c-0.8,0.8-1,2.3-0.8,4.2l0.1,0.6
    H1.1v2.3h2V18z"/>
  </g>
</symbol><symbol id="icon-insta-mobile" viewBox="0 0 16 16">
  <path d="M11.8,1C13.6,1,15,2.4,15,4.2v7.7c0,1.7-1.4,3.1-3.1,3.1H4.2C2.4,15,1,13.6,1,11.8V4.2C1,2.4,2.4,1,4.2,1
  L11.8,1 M11.8,0H4.2C1.9,0,0,1.9,0,4.2v7.7C0,14.1,1.9,16,4.2,16h7.7c2.3,0,4.2-1.9,4.2-4.2V4.2C16,1.9,14.1,0,11.8,0L11.8,0z"/>
  <path d="M8,4.9c1.7,0,3.1,1.4,3.1,3.1c0,1.7-1.4,3.1-3.1,3.1c-1.7,0-3.1-1.4-3.1-3.1C4.9,6.3,6.3,4.9,8,4.9 M8,3.9
  C5.7,3.9,3.9,5.7,3.9,8s1.8,4.1,4.1,4.1s4.1-1.8,4.1-4.1S10.3,3.9,8,3.9L8,3.9z"/>
  <circle cx="12.3" cy="3.7" r="0.9"/>
</symbol><symbol id="icon-mail" viewBox="0 0 17 13">
  <path d="M15.6,11.6H1.4V5.8H0V13h17V5.8h-1.4V11.6z M0,0v2.3l8.5,7.1L17,2.3V0H0z M15.6,1.6L8.5,7.5L1.4,1.6V1.4h14.2L15.6,1.6z"/>
</symbol><symbol id="icon-phone" viewBox="0 0 20 20">
  <path d="M17.9,9.4H9.4v1.2h8.5l-2.1,2.1l0.9,0.9l3.1-3.1c0.2-0.2,0.2-0.6,0-0.9l-3.1-3.1l-0.9,0.9L17.9,9.4z"/>
  <path d="M8.1,19.4v-6.2c0-0.3-0.3-0.6-0.6-0.6H4.4l0,0H3.1l0,0c0,0.7,0.6,1.2,1.2,1.2h2.5v5H3.1c-1,0.1-1.8-0.7-1.9-1.7
  c0-0.1,0-0.1,0-0.2V3.1c0-1,0.8-1.8,1.7-1.8c0.1,0,0.1,0,0.2,0h3.7v5H4.4c-0.7,0-1.2,0.6-1.2,1.2h4.4c0.3,0,0.6-0.3,0.6-0.6V0.6
  C8.1,0.3,7.8,0,7.5,0H3.1C1.5-0.1,0.1,1.2,0,2.9C0,3,0,3.1,0,3.1v13.7c-0.1,1.7,1.2,3.1,2.9,3.1c0.1,0,0.2,0,0.2,0h4.4
  C7.8,20,8.1,19.7,8.1,19.4z"/>
</symbol><symbol id="icon-vk-mobile" viewBox="0 0 22 12">
  <g>
    <path d="M17.6,12c-0.3,0-0.9-0.1-1.5-0.5c-0.5-0.3-0.9-0.7-1.3-1.2c-0.3-0.3-0.9-0.9-1.1-0.9c-0.2,0.1-0.4,0.7-0.3,1.2
    c0,0.1,0,0.6-0.3,0.9c-0.3,0.3-0.8,0.4-0.9,0.4l-1.4,0c-0.7,0-3.2-0.2-5.4-2.3C2.5,7.1,0.2,2.2,0.1,2C0,1.6-0.1,1.2,0.2,0.9
    c0.3-0.3,0.8-0.4,1-0.4l3,0l0.1,0c0.1,0,0.4,0.1,0.7,0.3c0.3,0.2,0.4,0.5,0.5,0.6c0,0,0.5,1.1,1.1,2c1,1.5,1.4,1.9,1.5,2
    C8.2,5,8.3,4,8.2,3.1c0-0.4-0.1-0.8-0.2-1C7.9,2,7.7,1.9,7.5,1.9L6.9,1.4C6.9,0.9,7.4,0.5,7.8,0.3C8.3,0.1,9.1,0,10.1,0l0.5,0
    c0.9,0,1.2,0.1,1.6,0.1c1.2,0.3,1.2,1.3,1.1,2.5c0,0.4,0,0.8,0,1.2c0,0.1,0,0.2,0,0.4c0,0.3,0,0.8,0.1,1c0.2-0.1,0.6-0.5,1.5-1.9
    c0.6-0.9,1-1.9,1.1-2.1l0,0c0.1-0.3,0.4-0.7,1.2-0.7l3.1,0c0,0,0.1,0,0.3,0c0.7,0,1.2,0.2,1.3,0.7c0.2,0.5,0.1,1.3-1.7,3.5
    c-0.3,0.3-0.5,0.6-0.7,0.9C19,6,18.6,6.6,18.6,6.7c0,0.1,0.5,0.5,0.9,0.9c1.1,0.9,1.9,1.7,2.2,2.3c0.4,0.6,0.3,1,0.2,1.3
    c-0.3,0.7-1.2,0.7-1.4,0.8l-2.8,0C17.7,12,17.6,12,17.6,12z M13.7,8.3c0.7,0,1.2,0.6,1.8,1.2c0.4,0.4,0.7,0.8,1.1,1
    c0.5,0.3,1,0.3,1,0.3l0.1,0l2.8,0c0.1,0,0.3-0.1,0.4-0.1c0,0,0-0.1-0.1-0.1c-0.3-0.5-1-1.3-2-2.1c-0.9-0.7-1.3-1.1-1.4-1.7
    c0-0.6,0.4-1.1,1.2-2.1c0.2-0.2,0.4-0.5,0.7-0.8c1.1-1.4,1.4-2,1.5-2.3c-0.1,0-0.5,0-0.5,0l-3.2,0c-0.1,0-0.2,0-0.2,0
    C16.9,2,16.4,3.1,15.8,4c-1.4,2.1-2,2.4-2.5,2.4c-0.1,0-0.3,0-0.4-0.1c-0.7-0.4-0.7-1.4-0.7-2.1c0-0.1,0-0.2,0-0.3
    c0-0.5,0-0.9,0-1.3c0.1-1.3,0-1.3-0.3-1.4c-0.3-0.1-0.5-0.1-1.4-0.1l-0.5,0c-0.5,0-1,0-1.4,0.1c0.1,0.1,0.1,0.1,0.2,0.2
    c0.4,0.5,0.4,1.5,0.4,1.7c0.1,1.3,0,2.9-0.7,3.3C8.4,6.4,8.3,6.5,8.1,6.5C7.5,6.5,6.8,5.8,5.6,4C5,2.9,4.5,1.8,4.5,1.8
    c0,0,0-0.1-0.1-0.1c-0.1,0-0.2-0.1-0.2-0.1l-2.9,0c0,0,0,0-0.1,0c0.4,0.9,2.5,5,4.8,7.2c2,1.9,4.3,2,4.7,2l1.4,0c0,0,0.2,0,0.2-0.1
    c0,0,0,0,0-0.1c0-0.2,0-2,1.2-2.3C13.5,8.3,13.6,8.3,13.7,8.3z"/>
  </g>
</symbol><symbol id="logo-footer" viewBox="0 0 127.8 23.4">
  <style type="text/css">
    .st0 {
      fill: #111111;
    }
  </style>
  <g>
    <path class="st0" d="M1.6,21.5c-1-1.3-1.6-3.2-1.6-5.6V7.6c0-2.5,0.5-4.4,1.5-5.7C2.6,0.6,4.3,0,6.8,0c2.4,0,4.1,0.6,5.1,1.7
    c1,1.1,1.5,2.8,1.5,4.9v2H8.5V6.3c0-0.9-0.1-1.6-0.3-2S7.6,3.5,6.8,3.5c-0.7,0-1.2,0.2-1.4,0.7S5.1,5.5,5.1,6.4v10.7
    c0,0.9,0.1,1.6,0.4,2.1c0.2,0.5,0.7,0.7,1.4,0.7c0.7,0,1.1-0.2,1.3-0.7c0.2-0.5,0.3-1.2,0.3-2.1v-2.4h4.9v2c0,2.1-0.5,3.8-1.5,5
    c-1,1.2-2.7,1.8-5.1,1.8C4.4,23.4,2.6,22.8,1.6,21.5z"/>
    <path class="st0" d="M19.3,0.3h5.7l4.2,22.8h-4.6l-0.8-4.8h-3.3l-0.8,4.8H15L19.3,0.3z M23.4,15.3l-1.2-8.9L21,15.3H23.4z"/>
    <path class="st0" d="M32.7,4.1h-3.4V0.3h11.9v3.7h-3.4v19.1h-5.1V4.1z"/>
    <path class="st0" d="M50.3,0.3h8.8v2.4h-5.7v7.5h4.6v2.3h-4.6v8.4h5.7v2.3h-8.9V0.3z"/>
    <path class="st0" d="M61.7,0.3h2.2l6.5,15.1V0.3h2.6v22.8h-2L64.4,7.5v15.6h-2.7V0.3z"/>
    <path class="st0" d="M76,0.3h8.8v2.4h-5.7v7.5h4.6v2.3h-4.6v8.4h5.7v2.3H76V0.3z"/>
    <path class="st0" d="M87.4,0.3H92c2.3,0,4,0.5,5.1,1.4c1.1,0.9,1.6,2.5,1.6,4.6c0,2.9-0.9,4.7-2.8,5.3l3.2,11.4H96l-3-10.7h-2.5
    v10.7h-3.2V0.3z M91.8,10.1c1.4,0,2.3-0.3,2.9-0.8c0.6-0.5,0.9-1.5,0.9-3c0-0.9-0.1-1.7-0.3-2.2c-0.2-0.5-0.6-0.9-1.1-1.2
    c-0.5-0.3-1.3-0.4-2.2-0.4h-1.4v7.5H91.8z"/>
    <path class="st0" d="M102.7,21.4c-0.9-1.3-1.4-3.2-1.4-5.8V8c0-1.8,0.2-3.2,0.5-4.3c0.4-1.1,1-2,1.9-2.6s2.1-0.9,3.7-0.9
    c2.1,0,3.6,0.5,4.5,1.6s1.4,2.7,1.4,5v0.8h-3V6.9c0-1.1-0.1-1.9-0.2-2.5c-0.1-0.6-0.4-1-0.8-1.3c-0.4-0.3-1-0.5-1.9-0.5
    c-0.9,0-1.5,0.2-2,0.6s-0.7,0.9-0.8,1.6s-0.2,1.6-0.2,2.7V16c0,1.7,0.2,3,0.6,3.8c0.4,0.8,1.2,1.1,2.4,1.1c1.2,0,2-0.4,2.4-1.2
    c0.4-0.8,0.7-2.1,0.7-4v-1.6h-2.9v-2.3h5.8v11.3h-2l-0.3-2.6c-0.7,1.9-2.1,2.9-4.1,2.9C105.1,23.4,103.6,22.7,102.7,21.4z"/>
    <path class="st0" d="M119.8,15.1l-4.9-14.7h3l3.5,11l3.4-11h3l-4.9,14.7v8h-3V15.1z"/>
  </g>
</symbol><symbol id="logo-htmlacademy" viewBox="0 0 26.943 34.09">
  <path d="M13.62,0.017L13.472,0L0,1.412v24.661l13.472,8.017l13.43-7.99l0.042-0.026V1.412L13.62,0.017z M25.019,12.127L13.495,5.334 l-0.001-0.104L13.407,5.28l-0.088-0.056v0.109L1.925,12.118V3.147l11.547-1.212l11.547,1.212V12.127z M13.405,6.787L24.923,13.5 l-4.479,2.64l-7.093-4.221l-0.013,1.415l5.904,3.513l-0.86,0.507l-5.031-2.992l-0.013,1.415l3.827,2.275l-0.782,0.523l-3.032-1.787 l-0.013,1.413l1.852,1.091l-1.8,1.081L2.034,13.622L13.405,6.787z M1.925,15.127l11.411,6.791l0.015,1.044l-7.941-4.728L5.395,19.65 l7.979,4.796l0.017,1.076l-7.972-4.741l-0.013,1.415l8.021,4.821l0.045,0.026l8.143-4.872v-1.268l-0.011-0.148v-3.761l3.415-2.036 v10.02L13.472,31.85L1.925,24.979V15.127z"/>
</symbol><symbol id="logo-mobile-header" viewBox="0 0 100.5 18.1">
  <style type="text/css">
    .st0 {
      fill: #111111;
    }
  </style>
  <g>
    <path class="st0" d="M1.2,16.6c-0.8-1-1.2-2.5-1.2-4.4V5.9c0-1.9,0.4-3.4,1.2-4.4C2,0.5,3.4,0,5.4,0c1.9,0,3.2,0.4,4,1.3
    c0.8,0.9,1.2,2.1,1.2,3.8v1.5H6.6V4.8c0-0.7-0.1-1.2-0.2-1.6C6.3,2.9,5.9,2.7,5.4,2.7S4.4,2.9,4.3,3.3C4.1,3.7,4,4.2,4,4.9v8.3
    c0,0.7,0.1,1.2,0.3,1.6c0.2,0.4,0.5,0.6,1.1,0.6c0.5,0,0.9-0.2,1-0.6c0.2-0.4,0.2-0.9,0.2-1.6v-1.8h3.9v1.5c0,1.6-0.4,2.9-1.2,3.9
    c-0.8,0.9-2.1,1.4-4,1.4C3.4,18.1,2,17.6,1.2,16.6z"/>
    <path class="st0" d="M15.2,0.2h4.5L23,17.8h-3.6l-0.6-3.7h-2.6l-0.6,3.7h-3.7L15.2,0.2z M18.4,11.8l-0.9-6.9l-0.9,6.9H18.4z"/>
    <path class="st0" d="M25.8,3.1h-2.7V0.2h9.3v2.9h-2.7v14.7h-4V3.1z"/>
    <path class="st0" d="M39.5,0.2h6.9v1.8H42v5.8h3.6v1.7H42v6.4h4.5v1.8h-7V0.2z"/>
    <path class="st0" d="M48.5,0.2h1.7l5.1,11.7V0.2h2.1v17.6h-1.6l-5.1-12v12h-2.1V0.2z"/>
    <path class="st0" d="M59.8,0.2h6.9v1.8h-4.4v5.8h3.6v1.7h-3.6v6.4h4.5v1.8h-7V0.2z"/>
    <path class="st0" d="M68.8,0.2h3.6c1.8,0,3.1,0.4,4,1.1s1.3,1.9,1.3,3.6c0,2.3-0.7,3.6-2.2,4.1l2.5,8.8h-2.4l-2.3-8.3h-1.9v8.3
    h-2.5V0.2z M72.2,7.8c1.1,0,1.8-0.2,2.3-0.6C75,6.8,75.2,6,75.2,4.9c0-0.7-0.1-1.3-0.2-1.7s-0.4-0.7-0.9-0.9
    c-0.4-0.2-1-0.3-1.7-0.3h-1.1v5.8H72.2z"/>
    <path class="st0" d="M80.8,16.5c-0.7-1-1.1-2.5-1.1-4.5V6.2c0-1.4,0.1-2.5,0.4-3.4c0.3-0.9,0.8-1.5,1.5-2c0.7-0.5,1.7-0.7,2.9-0.7
    c1.6,0,2.8,0.4,3.6,1.2c0.7,0.8,1.1,2.1,1.1,3.9v0.7h-2.3V5.3c0-0.8-0.1-1.5-0.2-1.9c-0.1-0.5-0.3-0.8-0.7-1
    C85.7,2.1,85.2,2,84.6,2c-0.7,0-1.2,0.2-1.5,0.5c-0.3,0.3-0.6,0.7-0.7,1.2c-0.1,0.5-0.1,1.2-0.1,2.1v6.5c0,1.3,0.2,2.3,0.5,2.9
    c0.3,0.6,1,0.9,1.9,0.9c0.9,0,1.6-0.3,1.9-1c0.3-0.6,0.5-1.7,0.5-3.1v-1.2h-2.3V9.1h4.5v8.7h-1.6l-0.2-2c-0.6,1.5-1.6,2.2-3.2,2.2
    C82.7,18,81.5,17.5,80.8,16.5z"/>
    <path class="st0" d="M94.3,11.6L90.4,0.2h2.3l2.7,8.5l2.7-8.5h2.3l-3.8,11.4v6.2h-2.4V11.6z"/>
  </g>
</symbol></svg>